<?xml version="1.0" encoding="UTF-8" standalone="no"?><!-- Generator: Gravit.io --><svg xmlns="http://www.w3.org/2000/svg" xmlns:xlink="http://www.w3.org/1999/xlink" style="isolation:isolate" viewBox="0 0 800 1200" width="800pt" height="1200pt"><defs><clipPath id="_clipPath_IKMYOa5QPnC1ictlylpxgERJigNMoqTj"><rect width="800" height="1200"/></clipPath></defs><g clip-path="url(#_clipPath_IKMYOa5QPnC1ictlylpxgERJigNMoqTj)"><circle vector-effect="non-scaling-stroke" cx="413.5829361748131" cy="248.49999999999997" r="166.49999999999994" fill="rgb(0,0,255)"/><linearGradient id="_lgradient_0" x1="0" y1="0.5" x2="1" y2="0.5" gradientTransform="matrix(127.726,0,0,106.438,319.001,261.425)" gradientUnits="userSpaceOnUse"><stop offset="1.25%" stop-opacity="1" style="stop-color:rgb(0,255,38)"/><stop offset="91.66666666666666%" stop-opacity="1" style="stop-color:rgb(220,240,0)"/><stop offset="100%" stop-opacity="1" style="stop-color:rgb(255,255,255)"/><stop offset="100%" stop-opacity="1" style="stop-color:rgb(252,254,235)"/><stop offset="100%" stop-opacity="1" style="stop-color:rgb(199,254,194)"/></linearGradient><path d=" M 319.001 294.877 L 347.131 261.425 L 436.843 261.425 L 446.727 294.877 L 400.35 311.603 L 400.35 367.863 L 347.131 335.932 L 347.131 294.877 L 319.001 294.877 Z " fill="url(#_lgradient_0)" vector-effect="non-scaling-stroke" stroke-width="1" stroke="rgb(0,0,0)" stroke-linejoin="miter" stroke-linecap="square" stroke-miterlimit="3"/><linearGradient id="_lgradient_1" x1="0" y1="0.5" x2="1" y2="0.5" gradientTransform="matrix(227.989,0,0,104.158,291.225,138.26)" gradientUnits="userSpaceOnUse"><stop offset="0%" stop-opacity="1" style="stop-color:rgb(0,255,170)"/><stop offset="98.33333333333333%" stop-opacity="1" style="stop-color:rgb(255,247,4)"/></linearGradient><path d=" M 323.051 168.929 Q 328.753 166.771 340.411 152.148 L 356.034 142.311 L 390.754 138.26 Q 412.405 149.472 423.158 142.311 Q 433.911 135.15 514.007 142.311 L 519.215 185.71 L 500.119 198.44 L 457.299 198.44 L 430.681 198.44 L 423.158 219.85 L 412.164 242.418 L 402.327 205.963 L 390.754 193.232 L 361.242 198.44 L 340.411 198.44 L 319.001 198.44 L 310.321 219.85 Q 301.834 219.127 298.748 214.642 Q 295.662 210.158 291.225 198.44 Q 293.745 193.22 298.748 193.232 C 303.751 193.244 317.349 171.087 323.051 168.929 Z " fill="url(#_lgradient_1)" vector-effect="non-scaling-stroke" stroke-width="1" stroke="rgb(0,0,0)" stroke-linejoin="miter" stroke-linecap="square" stroke-miterlimit="3"/><circle vector-effect="non-scaling-stroke" cx="421.7807077625569" cy="633.6977715877437" r="158.30222841225617" fill="rgb(0,153,133)"/><path d=" M 331.855 677.791 L 358.6 645.986 L 443.896 645.986 L 453.293 677.791 L 409.199 693.694 L 409.199 747.184 L 358.6 716.825 L 358.6 677.791 L 331.855 677.791 Z " fill="rgb(0,81,1)" vector-effect="non-scaling-stroke" stroke-width="1" stroke="rgb(0,0,0)" stroke-linejoin="miter" stroke-linecap="square" stroke-miterlimit="3"/><path d=" M 335.706 558.044 Q 341.128 555.993 352.211 542.09 L 367.066 532.737 L 400.075 528.886 Q 420.661 539.545 430.884 532.737 Q 441.108 525.929 517.26 532.737 L 522.211 573.999 L 504.056 586.103 L 463.344 586.103 L 438.037 586.103 L 430.884 606.459 L 420.431 627.915 L 411.079 593.255 L 400.075 581.151 L 372.017 586.103 L 352.211 586.103 L 331.855 586.103 L 323.603 606.459 Q 315.534 605.771 312.6 601.507 Q 309.665 597.243 305.447 586.103 Q 307.843 581.14 312.6 581.151 C 317.356 581.163 330.285 560.096 335.706 558.044 Z " fill="rgb(0,81,1)" vector-effect="non-scaling-stroke" stroke-width="1" stroke="rgb(0,0,0)" stroke-linejoin="miter" stroke-linecap="square" stroke-miterlimit="3"/><circle vector-effect="non-scaling-stroke" cx="421.780707762557" cy="990.302228412256" r="158.30222841225623" fill="rgb(32,4,6)"/><line x1="-146" y1="634.05" x2="-154" y2="736" vector-effect="non-scaling-stroke" stroke-width="1" stroke="rgb(0,0,0)" stroke-linejoin="miter" stroke-linecap="square" stroke-miterlimit="3"/></g></svg>